PathFileType	4	(X/Y/Z)	/Users/niels/Desktop/University/Third Semester/Perception and Action/Exam/Gymnastics Motion Tracking/Code for Gym Tracking/Analyzed Data/Webcam_Backflip/id2007_1_pure_Sports2D/id2007_1_pure_Sports2D_px_person00.trc
DataRate	CameraRate	NumFrames	NumMarkers	Units	OrigDataRate	OrigDataStartFrame	OrigNumFrames
29.795918367346935	29.795918367346935	11	22	m	29.795918367346935	55	147
Frame#	Time	Hip			RHip			RKnee			RAnkle			RBigToe			RSmallToe			RHeel			LHip			LKnee			LAnkle			LBigToe			LSmallToe			LHeel			Neck			Head			Nose			RShoulder			RElbow			RWrist			LShoulder			LElbow			LWrist		
		X1	Y1	Z1	X2	Y2	Z2	X3	Y3	Z3	X4	Y4	Z4	X5	Y5	Z5	X6	Y6	Z6	X7	Y7	Z7	X8	Y8	Z8	X9	Y9	Z9	X10	Y10	Z10	X11	Y11	Z11	X12	Y12	Z12	X13	Y13	Z13	X14	Y14	Z14	X15	Y15	Z15	X16	Y16	Z16	X17	Y17	Z17	X18	Y18	Z18	X19	Y19	Z19	X20	Y20	Z20	X21	Y21	Z21	X22	Y22	Z22
55	1.845890410958904	0.956421175152333	-0.7579355364338147	0.0	0.9249857638841299	-0.7583935086210021	0.0	0.9361851909263158	-1.056445020753914	0.0			0.0			0.0			0.0			0.0	1.000979814302974	-0.7719674524096786	0.0	0.9996349139552204	-1.0573929468291394	0.0	1.1223947753906245	-1.0779008789062505	0.0			0.0			0.0			0.0	0.9793833490965741	-0.2662443417297397	0.0	1.0214168867946316	-0.0741367426761954	0.0	1.0366120512584032	-0.17102402486455517	0.0	0.912782155965195	-0.3242562002714989	0.0	0.9426819417245154	-0.5733634939109364	0.0	1.0215159871516024	-0.7927216577213937	0.0	1.0243340007223654	-0.35130240652861316	0.0	1.055579554624827	-0.5747313656580928	0.0	1.0998295130474547	-0.7652256978887545	0.0
56	1.8794520547945206	0.957218294536787	-0.7582973151369508	0.0	0.9254190525925056	-0.758962623528404	0.0	0.9366931711644362	-1.0566815239005882	0.0			0.0			0.0			0.0			0.0	1.001755309682135	-0.7719122133168361	0.0	1.0008327038958225	-1.0576245786723788	0.0	1.1223947753906245	-1.0779008789062505	0.0			0.0			0.0			0.0	0.979902320159496	-0.2656925842560204	0.0	1.0226150726794485	-0.073139444337066	0.0	1.037736349436476	-0.17055949057420328	0.0	0.9129511619937445	-0.32416486903791264	0.0	0.9415902852785297	-0.5732464828536357	0.0	1.0185352412932362	-0.7943025170451206	0.0	1.0252860758558122	-0.3514575692462962	0.0	1.0587195076407663	-0.5759832496516084	0.0	1.1021929146759188	-0.7662283052708755	0.0
57	1.9130136986301371	0.9586130257925142	-0.7589552768990628	0.0	0.9262033207449767	-0.7598517843187473	0.0	0.9371925017916677	-1.056973516022654	0.0			0.0			0.0			0.0			0.0	1.0031503347895898	-0.7721498066068136	0.0	1.0024415963207185	-1.0580177403101958	0.0	1.1223947753906245	-1.0779008789062505	0.0			0.0			0.0			0.0	0.9803965493403455	-0.26520470817243297	0.0	1.0235165357032967	-0.07217955491634492	0.0	1.0385635761048573	-0.17020743303813052	0.0	0.912945043701883	-0.32417441863202956	0.0	0.9401555396460832	-0.5727665207219323	0.0	1.0156570677540897	-0.7957334186068815	0.0	1.0264913639678952	-0.35199388500517675	0.0	1.061679244019857	-0.5775749969781019	0.0	1.1043371720300776	-0.7675406357937523	0.0
58	1.9465753424657535	0.960875033267342	-0.7601371705566172	0.0	0.9275645282640812	-0.761270311430448	0.0	0.9378372600719382	-1.057400177576319	0.0			0.0			0.0			0.0			0.0	1.0054314342692752	-0.7729674037777364	0.0	1.004256925577413	-1.0585862377175899	0.0	1.1223947753906245	-1.0779008789062505	0.0			0.0			0.0			0.0	0.9809570966245384	-0.2647740033632564	0.0	1.0241803120353872	-0.07128320954878987	0.0	1.0389133643456063	-0.1698456410710085	0.0	0.9127693544159468	-0.3242863310054015	0.0	0.9384772392522576	-0.5720652741414173	0.0	1.0129607093143251	-0.7969086850105014	0.0	1.027836070539089	-0.3528712775390289	0.0	1.0645454269318517	-0.5794113067590161	0.0	1.1063772217982284	-0.7689633668659731	0.0
59	1.9801369863013698	0.9639027941805572	-0.761787301101469	0.0	0.9294897458196203	-0.7631881507483222	0.0	0.9387531733732452	-1.0579106704909869	0.0			0.0			0.0			0.0			0.0	1.0085017346918872	-0.7743497492576794	0.0	1.0060109438992395	-1.059199523268459	0.0	1.1223947753906245	-1.0779008789062505	0.0			0.0			0.0			0.0	0.9815801461280297	-0.26434933861739424	0.0	1.0246833466952625	-0.07041524264763752	0.0	1.0388238869057844	-0.1693849896607589	0.0	0.9124265220631528	-0.32446193300652765	0.0	0.9367163049113045	-0.5713479987703114	0.0	1.0105332915107217	-0.7978453164233589	0.0	1.0291581280427107	-0.3537950042628256	0.0	1.067271323194024	-0.5811500801198913	0.0	1.1083473611092383	-0.7702420399827175	0.0
60	2.0136986301369864	0.9672855458931633	-0.7635558202470751	0.0	0.931735136838116	-0.7653102939065815	0.0	0.93990009240906	-1.0582349984945263	0.0			0.0			0.0			0.0			0.0	1.0119622027313897	-0.7760012203173519	0.0	1.0075888151832275	-1.059591462649175	0.0	1.1223947753906245	-1.0779008789062505	0.0			0.0			0.0			0.0	0.9822034356063517	-0.26390070787712094	0.0	1.0250187911301094	-0.06955466582936069	0.0	1.0384808539266408	-0.16881970399901533	0.0	0.9119612613242387	-0.3245665625702458	0.0	0.9350464735451547	-0.570735139919221	0.0	1.0084389196576249	-0.7985538718834423	0.0	1.0303939739816375	-0.3543964092005042	0.0	1.0697210953186886	-0.5823785664058624	0.0	1.1102132228115527	-0.7711477198246263	0.0
61	2.047260273972603	0.9705494385944594	-0.765021361131783	0.0	0.9339913540517562	-0.7672475444986858	0.0	0.9411082453025432	-1.0580685040295927	0.0			0.0			0.0			0.0			0.0	1.015349261089601	-0.7775244425730502	0.0	1.0090398385215733	-1.0595266044776157	0.0	1.1223947753906245	-1.0779008789062505	0.0			0.0			0.0			0.0	0.982767349999962	-0.2634593359439407	0.0	1.025144131012201	-0.0687548203508912	0.0	1.0380929152089884	-0.1681852100082354	0.0	0.9114802836848621	-0.32445775176985997	0.0	0.933595028179949	-0.5702250058787222	0.0	1.0067283712627593	-0.7990081470822347	0.0	1.0316033681303947	-0.35449886264302255	0.0	1.0717715340904062	-0.5829129214527006	0.0	1.1119240100543815	-0.7715810030941481	0.0
62	2.080821917808219	0.9733393169485788	-0.7659359548404048	0.0	0.9360498342473769	-0.7687251739494115	0.0	0.942252359017484	-1.0573803343385306	0.0			0.0			0.0			0.0			0.0	1.0183009285658582	-0.7786257876935883	0.0	1.0104232511507658	-1.058974848116257	0.0	1.1223947753906245	-1.0779008789062505	0.0			0.0			0.0			0.0	0.9832390460175374	-0.2631176577299024	0.0	1.0250823002325822	-0.06810288911449655	0.0	1.0378007358044932	-0.16752285322521232	0.0	0.9111239496295188	-0.32410415447481705	0.0	0.9324224189093667	-0.5697765361949398	0.0	1.0054403322569296	-0.7992229049486715	0.0	1.0328447429931906	-0.3542088836249132	0.0	1.0733359166938807	-0.5828896933624939	0.0	1.1134451525636149	-0.7715929192801914	0.0
63	2.1143835616438356	0.9755105816280623	-0.7663114088131867	0.0	0.937857396054515	-0.7696749926670705	0.0	0.9433393420938526	-1.056421919422054	0.0			0.0			0.0			0.0			0.0	1.0206275614971334	-0.779253248673982	0.0	1.011691669058833	-1.0581015670046914	0.0	1.1223947753906245	-1.0779008789062505	0.0			0.0			0.0			0.0	0.9836028234065062	-0.2629589050978329	0.0	1.0248979567399832	-0.06765491959249435	0.0	1.0376176427437283	-0.16687681180224354	0.0	0.9109942264875659	-0.32355428560954785	0.0	0.931541655246032	-0.5693497977096893	0.0	1.004552754853745	-0.7992637731773571	0.0	1.0340722056384608	-0.3537774557447263	0.0	1.0744149067360615	-0.5826060828669917	0.0	1.1147779843880834	-0.7713084433252665	0.0
64	2.147945205479452	0.9771399840401248	-0.7663569237703934	0.0	0.9394773967880885	-0.7701958877272084	0.0	0.9444515655500839	-1.0555309198038347	0.0			0.0			0.0			0.0			0.0	1.0223238810123567	-0.7795923047163891	0.0	1.0126788151448105	-1.0571704946451745	0.0	1.1223947753906245	-1.0779008789062505	0.0			0.0			0.0			0.0	0.9838634401125638	-0.2629847414076249	0.0	1.0246117881790373	-0.06740483011713139	0.0	1.0374461808952913	-0.16628808884440002	0.0	0.9110962697920066	-0.3228360167979158	0.0	0.9309232303723244	-0.5688999469040071	0.0	1.0039776862866587	-0.7991857717142221	0.0	1.0351756743774219	-0.35341074656505816	0.0	1.0751594194520655	-0.5823503852058894	0.0	1.1159698683456734	-0.770839857901476	0.0
65	2.1815068493150687	0.9784091257590727	-0.7663553867752668	0.0	0.9409850916548962	-0.7704825943217782	0.0	0.9456511923648908	-1.0550247212943533	0.0			0.0			0.0			0.0			0.0	1.0235138047580585	-0.7799271690711758	0.0	1.013217265874843	-1.0564576061261088	0.0	1.1223947753906245	-1.0779008789062505	0.0			0.0			0.0			0.0	0.98405147047432	-0.26310449442886197	0.0	1.0242097040087248	-0.06728991161337189	0.0	1.037182999009011	-0.16579040815535478	0.0	0.9113523096440763	-0.32197626827164755	0.0	0.9305262063716558	-0.5684401698876314	0.0	1.0036484210475045	-0.7990364028603695	0.0	1.0360696493139727	-0.3531921540195244	0.0	1.0757843640626392	-0.5823221500164019	0.0	1.1170744673842665	-0.7702589169996839	0.0
